<svg id="Layer_1" data-name="Layer 1" xmlns="http://www.w3.org/2000/svg" viewBox="0 0 70 70"><defs><style>.cls-1{fill:#ed1f24;}.cls-2,.cls-3{fill:#fff;}.cls-3{fill-rule:evenodd;}</style></defs><title>logo</title><rect class="cls-1" width="70" height="70"/><path class="cls-2" d="M27.94,28.14a1,1,0,0,1-.7.16H26a1.1,1.1,0,0,1-.71-0.16,1,1,0,0,1-.18-0.7V25.13H22.4v2.73q0,2.61,2.76,2.61H28q2.79,0,2.79-2.61V22.51q0-2.61-2.73-2.61H25.93a1.1,1.1,0,0,1-.71-0.16A1,1,0,0,1,25,19V14.91a1,1,0,0,1,.18-0.7A1.11,1.11,0,0,1,25.93,14h1.25a1.11,1.11,0,0,1,.71.16,1,1,0,0,1,.18.7v2.32h2.7V14.49q0-2.61-2.76-2.61H25.1q-2.76,0-2.76,2.61v4.9Q22.34,22,25,22h2.2a1,1,0,0,1,.7.16,1,1,0,0,1,.16.7v4.55A1,1,0,0,1,27.94,28.14Z"/><path class="cls-2" d="M41.95,14.2L43.64,24H40.4Zm5.5,16.28-3.54-18.6H40l-3.3,18.6h2.67l0.68-4.31H44l0.74,4.31h2.7Z"/><path class="cls-2" d="M31,36.77q0-2.61-2.76-2.61H25.07q-2.76,0-2.76,2.61V50.14q0,2.64,2.76,2.64h3.18q2.76,0,2.76-2.64v-7H26.82v2.08h1.49v4.55a1,1,0,0,1-.18.7,1.1,1.1,0,0,1-.71.16H25.9a1.1,1.1,0,0,1-.71-0.16,1,1,0,0,1-.18-0.7V37.13a1,1,0,0,1,.18-0.7,1.11,1.11,0,0,1,.71-0.16h1.52a1.1,1.1,0,0,1,.71.16,1,1,0,0,1,.18.7V39.6H31V36.77Z"/><path class="cls-2" d="M40.91,44.23h4.28V42.06H40.91V36.33h5.17V34.16H38.2v18.6h8.08V50.59H40.91V44.23Z"/><path class="cls-3" d="M22.47,55.75H46.24v2.38H22.47V55.75Z"/></svg>